# xmcd
#
# Track frame offsets:
# 150
# 22040
# 28069
# 49959
# 71849
# 93739
#
# Disc length: 1535 seconds
#
#
# Revision: 0
# Processed by: cddbd v1.5.2PL0 Copyright (c) Steve Scherf et al.
# Submitted via: FreeRIP 2.60 
#
DISCID=5505fd06
DTITLE=Christian World - Revelation Song
DYEAR=2009
DGENRE=Contemporary Christian
TTITLE0=Demo
TTITLE1=Promo
TTITLE2=Original Key with BGV
TTITLE3=Higher Key with BGV
TTITLE4=Lower Key
TTITLE5=Original Key without BGV
EXTD=
EXTT0=
EXTT1=
EXTT2=
EXTT3=
EXTT4=
EXTT5=
PLAYORDER=
